<?xml version="1.0" standalone="no"?>
<!DOCTYPE svg PUBLIC "-//W3C//DTD SVG 20010904//EN"
 "http://www.w3.org/TR/2001/REC-SVG-20010904/DTD/svg10.dtd">
<svg version="1.0" xmlns="http://www.w3.org/2000/svg"
 width="500.000000pt" height="500.000000pt" viewBox="0 0 500.000000 500.000000"
 preserveAspectRatio="xMidYMid meet">
<metadata>
Created by potrace 1.16, written by Peter Selinger 2001-2019
</metadata>
<g transform="translate(0.000000,500.000000) scale(0.100000,-0.100000)"
fill="#000000" stroke="none">
<path d="M0 2858 l1 -2143 22 30 c12 16 43 55 70 85 86 99 165 209 223 308
130 223 222 367 262 413 38 42 50 49 93 55 27 4 49 11 49 16 0 17 -32 58 -45
58 -21 0 -58 58 -53 84 3 16 0 23 -11 22 -9 -1 -17 11 -22 29 -3 17 -10 38
-14 47 -4 11 1 23 15 35 l21 18 -23 5 c-19 5 -23 13 -26 54 -2 27 1 53 7 59 6
6 5 14 -4 24 -16 15 -11 59 10 104 6 14 10 40 7 58 -2 18 0 31 7 31 16 0 37
49 45 102 4 26 11 50 17 53 5 4 9 17 9 29 0 13 7 29 15 36 9 7 13 21 9 34 -3
12 5 41 21 69 14 26 25 53 25 58 0 6 11 25 24 42 46 63 65 135 86 327 40 368
75 557 129 710 18 53 73 172 109 236 52 94 205 259 316 342 149 111 189 139
226 156 19 8 42 20 50 26 20 13 188 90 198 90 4 0 23 8 42 19 20 10 62 24 95
31 33 7 72 16 86 22 14 5 46 9 70 10 24 0 51 6 60 14 11 10 33 13 73 10 31 -2
58 0 61 4 9 15 306 4 345 -12 19 -8 51 -13 71 -10 20 2 53 -1 75 -8 21 -6 71
-20 109 -30 59 -15 168 -67 365 -172 19 -10 50 -32 70 -50 19 -18 44 -37 55
-43 57 -28 248 -270 339 -427 15 -27 31 -48 35 -48 5 0 23 -30 40 -67 42 -87
125 -206 171 -246 21 -18 45 -46 53 -64 9 -17 26 -35 38 -38 12 -4 29 -26 40
-51 10 -25 30 -55 43 -67 25 -21 106 -220 106 -257 0 -10 9 -29 20 -43 11 -14
20 -35 20 -47 0 -30 22 -110 78 -278 39 -120 45 -145 34 -162 -16 -26 -15 -29
6 -23 39 10 62 -69 36 -119 -15 -30 -15 -31 10 -55 23 -21 25 -29 20 -66 -4
-23 -13 -48 -22 -54 -10 -8 -11 -13 -4 -13 8 0 12 -20 12 -59 0 -53 -3 -62
-26 -78 -24 -17 -25 -22 -14 -43 18 -33 -5 -98 -37 -106 -18 -5 -22 -11 -17
-26 6 -21 -14 -58 -55 -100 -14 -14 -44 -48 -66 -73 -22 -26 -46 -52 -54 -59
-7 -6 -38 -37 -69 -68 -30 -32 -61 -58 -68 -58 -9 0 -14 -11 -14 -30 0 -33
-37 -66 -92 -85 -27 -8 -34 -17 -41 -53 -11 -55 -40 -76 -94 -66 -21 4 -46 11
-55 16 -33 17 -75 -17 -112 -91 l-35 -68 97 -11 c100 -10 257 -57 381 -113 35
-16 95 -33 135 -38 173 -21 408 -169 575 -361 35 -41 82 -95 103 -119 l38 -44
0 2257 0 2256 -2500 0 -2500 0 0 -2142z"/>
<path d="M2364 4639 c-3 -5 -28 -7 -55 -3 -37 5 -55 3 -74 -10 -16 -10 -34
-14 -50 -10 -14 3 -47 -1 -73 -9 -26 -8 -69 -18 -97 -22 -27 -4 -65 -15 -85
-25 -19 -11 -82 -40 -140 -66 -58 -26 -112 -53 -120 -59 -8 -7 -26 -16 -40
-20 -24 -7 -67 -36 -153 -103 -23 -17 -46 -36 -52 -40 -5 -4 -26 -18 -45 -31
-72 -49 -234 -231 -274 -310 -10 -20 -24 -43 -30 -51 -23 -28 -75 -155 -101
-245 -51 -176 -78 -341 -115 -700 -15 -145 -34 -212 -77 -272 -33 -45 -64
-130 -58 -156 4 -14 -1 -30 -13 -43 -11 -11 -23 -35 -27 -52 -3 -18 -11 -34
-16 -37 -5 -4 -9 -23 -9 -43 0 -23 -9 -51 -24 -73 -16 -23 -23 -44 -19 -58 3
-11 1 -27 -5 -34 -5 -6 -15 -29 -20 -50 -9 -32 -8 -38 9 -47 23 -13 25 -33 4
-50 -23 -19 -19 -67 5 -73 23 -6 28 -48 7 -66 -8 -6 -12 -23 -9 -40 3 -24 9
-30 26 -28 19 2 21 -3 21 -41 0 -43 20 -72 50 -72 5 0 22 -21 36 -48 l26 -48
-21 -16 c-20 -15 -20 -17 -5 -34 9 -11 32 -46 50 -79 25 -46 109 -136 354
-381 529 -529 769 -788 836 -902 28 -47 83 -98 165 -153 13 -9 22 -18 19 -21
-3 -2 10 -3 28 -1 26 3 28 1 12 -6 -14 -7 22 -10 111 -10 123 0 130 1 129 20
-1 11 -7 25 -15 32 -10 9 -11 9 -6 0 15 -27 -14 -11 -85 47 -40 33 -77 60 -81
60 -4 0 -8 9 -8 20 0 11 5 20 11 20 9 0 107 -71 141 -103 7 -6 37 -31 65 -55
l52 -42 286 0 c188 0 284 3 280 10 -3 5 0 10 9 10 8 0 16 -3 19 -7 2 -5 2 -1
0 7 -2 11 0 11 11 -3 14 -18 82 -25 71 -7 -3 5 -2 10 4 10 5 0 12 -6 14 -12 3
-8 6 -6 6 5 1 9 5 17 11 17 5 0 7 -7 4 -15 -5 -12 3 -15 39 -15 39 0 46 3 51
24 3 13 9 32 13 42 6 15 3 15 -17 -4 -23 -21 -40 -28 -40 -17 0 3 12 17 28 30
l27 24 -41 -20 c-39 -18 -156 -39 -143 -25 3 3 32 13 63 21 31 8 67 22 80 30
13 9 30 14 37 13 9 -2 15 7 16 22 1 14 10 54 20 89 21 75 44 93 42 34 l-2 -38
-7 35 c-7 35 -7 35 -9 5 -1 -16 -4 -41 -6 -55 -5 -22 -4 -22 4 -5 15 32 13 -1
-9 -105 -11 -52 -20 -96 -20 -97 0 -2 90 -3 200 -3 l200 0 -5 28 -6 27 16 -27
16 -28 165 0 c93 0 163 4 160 9 -7 11 27 21 71 21 46 0 50 -18 6 -23 -21 -2
154 -4 390 -5 l427 -2 0 226 0 226 -52 60 c-136 155 -198 220 -258 270 -93 77
-128 100 -141 92 -7 -4 -9 -3 -6 3 6 10 -93 63 -118 63 -8 0 -15 5 -15 10 0 6
-9 10 -20 10 -10 0 -42 9 -70 20 -67 27 -94 27 -60 0 14 -11 33 -17 43 -14 20
6 87 -30 170 -93 34 -26 62 -41 70 -37 6 4 8 3 4 -1 -12 -14 123 -144 142
-138 12 4 13 3 3 -4 -10 -8 3 -28 55 -84 111 -120 178 -201 208 -249 33 -53
25 -47 -46 40 -191 234 -506 528 -596 556 -17 5 -17 5 1 -6 14 -9 15 -14 6
-20 -7 -5 -21 1 -33 13 -13 13 -22 16 -25 9 -2 -6 -10 -8 -18 -5 -7 3 -11 10
-7 16 4 6 1 7 -6 3 -7 -5 -18 0 -26 10 -8 11 -15 15 -15 10 0 -5 -8 -2 -17 7
-10 8 -31 18 -48 22 -22 4 -15 -3 29 -27 108 -61 240 -170 398 -330 208 -210
348 -384 336 -420 -2 -6 -18 13 -36 43 -43 75 -130 176 -308 354 -171 172
-292 273 -396 332 -82 45 -278 126 -352 144 -40 10 -46 14 -30 20 14 6 8 8
-23 10 -24 1 -47 3 -53 4 -5 1 -17 3 -25 4 -24 2 -18 36 19 103 63 114 88 225
106 468 6 80 13 151 16 159 2 8 5 136 5 286 0 269 0 272 -27 346 -14 41 -34
90 -44 109 -31 60 -50 107 -50 123 0 9 -4 18 -9 21 -5 3 -11 20 -14 38 -3 18
-12 53 -20 78 -8 25 -28 84 -43 132 -15 48 -42 110 -60 137 -35 51 -182 201
-198 201 -5 0 -3 -7 4 -15 9 -11 9 -15 1 -15 -6 0 -14 7 -17 15 -4 8 -12 15
-19 15 -7 0 -16 8 -20 18 -5 14 -4 15 6 5 18 -18 34 -16 19 2 -7 8 -19 15 -27
15 -8 0 -12 4 -8 9 3 5 1 12 -5 16 -5 3 -10 2 -10 -4 0 -7 -8 -7 -25 1 -14 6
-25 15 -25 20 0 10 -122 67 -161 75 -16 3 -29 9 -29 13 0 4 -25 10 -56 14 -31
3 -65 11 -75 17 -11 5 -47 12 -82 14 -34 2 -118 9 -186 15 -68 6 -131 8 -140
5 -9 -3 -52 -8 -96 -10 -44 -3 -105 -10 -135 -16 -87 -17 -183 -40 -205 -49
-11 -4 -36 -14 -55 -20 -19 -7 -43 -21 -52 -32 -9 -11 -27 -20 -40 -21 -13 -1
-29 -7 -36 -14 -15 -15 -32 -17 -32 -5 0 12 34 42 47 42 6 0 27 14 48 30 21
17 45 30 54 30 9 0 26 6 37 14 11 8 38 17 60 21 21 4 50 14 63 22 13 8 49 19
80 24 71 12 491 21 491 11 0 -4 28 -9 62 -10 149 -6 430 -93 466 -144 7 -10
19 -18 27 -18 7 0 20 -6 27 -12 7 -7 35 -29 61 -48 74 -54 169 -150 203 -205
34 -53 57 -114 124 -320 24 -71 63 -178 87 -237 23 -59 50 -135 58 -170 18
-80 30 -259 16 -238 -8 11 -11 -17 -11 -97 0 -120 4 -145 25 -137 17 7 31 -34
16 -49 -8 -8 -11 -8 -11 1 0 7 -5 12 -11 12 -6 0 -8 -8 -4 -19 3 -10 -1 -38
-8 -62 -8 -24 -20 -98 -26 -164 -14 -142 -36 -292 -46 -319 -7 -15 -5 -17 14
-11 12 4 27 2 34 -3 18 -14 82 -22 97 -12 7 5 16 28 19 51 6 40 9 45 49 59 58
21 82 44 82 80 0 20 5 30 15 30 20 0 85 59 96 87 5 13 14 23 21 23 7 0 38 28
68 62 30 34 70 78 87 97 32 35 37 44 34 68 -3 21 19 53 35 53 22 0 38 49 24
76 -15 27 -5 60 19 67 14 3 20 16 22 50 2 25 1 43 -2 41 -4 -2 -12 3 -19 11
-11 13 -9 20 10 40 31 33 32 73 3 92 -27 18 -29 37 -8 76 21 41 10 85 -24 89
-31 4 -40 32 -17 57 9 10 14 20 11 23 -13 13 -78 201 -95 273 -27 121 -33 141
-45 155 -7 8 -16 31 -20 50 -17 85 -80 235 -112 268 -18 18 -33 39 -33 48 0 8
-20 34 -45 58 -25 25 -45 49 -45 55 0 6 -19 28 -41 48 -47 43 -133 164 -167
238 -13 28 -33 61 -46 75 -12 14 -45 61 -71 105 -27 44 -72 112 -100 152 -58
83 -189 223 -208 223 -7 0 -26 13 -42 30 -15 16 -42 36 -59 45 -48 25 -73 40
-87 52 -8 6 -24 14 -36 17 -12 4 -55 25 -95 47 -86 48 -142 69 -184 69 -16 0
-34 4 -40 9 -20 20 -83 30 -114 18 -25 -9 -35 -8 -60 7 -25 14 -58 18 -180 21
-85 1 -153 -1 -156 -6z m1022 -1835 c38 -15 70 -31 72 -35 2 -4 13 -19 26 -34
20 -23 27 -25 44 -16 11 6 31 10 44 10 l23 -2 -23 -4 c-19 -4 -23 -9 -17 -26
4 -12 7 -30 7 -39 -1 -11 5 -15 14 -11 8 3 14 1 14 -5 0 -5 -11 -12 -25 -14
-25 -5 -36 14 -15 27 14 9 2 25 -19 25 -9 0 -34 18 -55 39 -44 45 -131 88
-196 96 -41 5 -40 4 12 -10 77 -19 126 -46 168 -90 l35 -37 -65 41 c-86 56
-155 76 -258 75 -48 -1 -78 3 -70 7 7 5 24 9 38 10 23 2 23 2 3 6 -31 6 -103
-28 -154 -73 -24 -22 -37 -30 -29 -19 17 22 65 65 89 80 72 43 227 42 337 -1z
m-2075 -1058 c14 -15 11 -26 -8 -26 -15 0 -16 2 -3 10 8 5 11 10 5 10 -29 0
-37 -17 -25 -54 6 -20 16 -34 21 -31 5 4 9 -5 9 -20 0 -14 7 -28 15 -32 25 -9
30 6 12 36 -9 16 -17 36 -17 44 0 25 38 8 49 -22 9 -25 9 -24 11 14 l1 40 14
-33 c8 -19 28 -89 44 -155 49 -202 100 -360 153 -472 14 -30 47 -65 103 -109
91 -72 84 -73 -17 -3 -59 41 -108 95 -108 119 0 8 -4 18 -8 24 -14 15 -71 164
-87 228 -9 33 -25 74 -35 92 -11 17 -20 44 -20 59 0 15 -5 45 -12 67 -10 36
-14 38 -40 33 -22 -5 -32 -1 -53 22 -59 68 -88 183 -45 183 11 0 21 6 21 13 1
6 3 3 6 -8 3 -11 9 -24 14 -29z m1590 -251 c4 -25 7 -31 8 -15 1 19 4 21 10
11 5 -8 7 -20 4 -28 -3 -7 5 -17 18 -22 23 -9 23 -10 -6 -12 l-30 -1 30 -8
c23 -6 25 -8 8 -9 -12 0 -29 -4 -39 -8 -13 -5 -15 -3 -9 7 6 10 4 12 -9 7 -10
-4 -22 -7 -27 -7 -6 0 -8 -4 -5 -9 9 -14 -32 -21 -158 -28 l-118 -6 6 30 c4
16 2 42 -4 57 -9 24 -8 27 5 22 8 -3 15 -1 15 4 0 6 4 10 9 10 6 0 11 -19 13
-42 l3 -43 45 1 c79 1 205 15 213 23 5 5 7 26 5 47 l-3 39 -45 -2 -45 -2 35
14 c52 20 64 15 71 -30z m723 -397 c-12 -41 -66 -112 -152 -200 -47 -48 -90
-97 -96 -110 -6 -12 -42 -48 -79 -79 -131 -110 -290 -166 -538 -191 -186 -18
-351 9 -507 84 -82 39 -74 47 9 10 137 -62 217 -77 404 -77 151 1 182 4 280
28 190 48 319 123 406 237 19 25 62 73 96 108 76 77 146 159 162 190 6 12 14
22 17 22 3 0 2 -10 -2 -22z"/>
<path d="M660 1580 c-53 -13 -103 -77 -256 -333 -145 -241 -184 -295 -384
-535 -19 -23 -20 -41 -20 -368 l0 -344 1076 0 1076 0 -44 35 c-23 20 -60 49
-81 66 -21 17 -46 46 -54 65 -9 18 -21 30 -27 27 -6 -3 -8 -3 -4 2 12 13 -12
47 -28 41 -8 -3 -12 -1 -9 4 9 15 -61 99 -234 280 -87 91 -182 192 -211 225
-30 33 -79 84 -110 114 -241 233 -554 551 -567 576 -9 16 -22 35 -29 43 -8 7
-12 18 -8 23 3 5 -4 21 -15 36 -16 20 -18 29 -10 39 13 16 -4 17 -61 4z"/>
</g>
</svg>
